<svg width="34" height="34" viewBox="0 0 34 34" fill="none" xmlns="http://www.w3.org/2000/svg">
<circle cx="17" cy="17" r="11" stroke="#D6D9DD" stroke-width="3"/>
<path d="M18.5033 16.8318C18.5033 17.3785 18.3725 18.229 18.1373 19.3832C17.902 20.5374 17.7712 21.2664 17.7712 21.6005C17.7712 21.9346 17.8235 22.1168 17.9281 22.1168C18.0327 22.1168 18.2418 22.0561 18.5294 21.9346L18.6601 21.8738L18.9216 22.785C18.5817 23.1192 18.1634 23.3925 17.6667 23.6355C17.1699 23.8785 16.7255 24 16.3072 24C15.915 24 15.5752 23.8481 15.3399 23.5748C15.1046 23.3014 15 22.8762 15 22.3294C15 21.7827 15.1307 20.9626 15.366 19.8692C15.6013 18.7757 15.732 18.0771 15.732 17.7734C15.732 17.3178 15.6013 16.8925 15.3399 16.4673L15.2092 16.2547L15.2614 15.9509C15.7843 15.7687 16.7778 15.6472 18.2418 15.6472C18.4248 15.8902 18.5033 16.285 18.5033 16.8318ZM17.4052 14.2196C16.9608 14.2196 16.5948 14.0678 16.3595 13.764C16.098 13.4603 15.9935 13.0958 15.9935 12.6402C15.9935 12.1846 16.1503 11.7897 16.4641 11.486C16.7778 11.1822 17.1438 11 17.5882 11C18.0327 11 18.3725 11.1215 18.634 11.3949C18.8693 11.6682 19 12.0327 19 12.4883C19 12.9439 18.8431 13.3692 18.5556 13.7033C18.2157 14.0678 17.8497 14.2196 17.4052 14.2196Z" fill="#D6D9DD"/>
</svg>
