<svg width="17" height="17" viewBox="0 0 17 17" fill="none" xmlns="http://www.w3.org/2000/svg">
<path d="M16.6197 3.53863L14.0002 6.15901C13.4785 6.67878 12.6144 6.66299 12.0745 6.12274L10.7547 4.80303C10.6714 4.84899 10.5851 4.897 10.4943 4.94793C9.66093 5.40981 8.52029 6.04286 7.32 7.24428C6.11616 8.44823 5.48266 9.59087 5.01947 10.425C4.97059 10.5133 4.92376 10.5985 4.87752 10.6795L5.76325 11.5641L6.19871 12.0001C6.73947 12.5412 6.75438 13.4052 6.23384 13.9264L3.61432 16.5471C3.09377 17.0677 2.22934 17.0519 1.68857 16.5108L0.950302 15.7682C0.722924 15.4322 0.516062 15.0678 0.362122 14.6749C0.220218 14.3008 0.131869 13.9439 0.091471 13.5862C-0.25442 10.7181 1.05595 8.09685 4.61213 4.53987C9.52785 -0.376547 13.4893 -0.00513915 13.6602 0.0129926C14.0324 0.0574933 14.3891 0.146447 14.7516 0.28726C15.1411 0.43943 15.5051 0.646043 15.8208 0.893112L16.5849 1.61131C17.1245 2.15224 17.14 3.01652 16.6197 3.53863Z" fill="#5442B6"/>
</svg>
